<svg xmlns="http://www.w3.org/2000/svg" width="910" height="550" viewBox="0 0 910 550">
  <!-- 名刺サイズ: 91mm x 55mm を10倍 -->

  <!-- 背景 -->
  <rect width="910" height="550" fill="#ffffff"/>

  <!-- 上部のアクセントライン -->
  <rect x="0" y="0" width="910" height="8" fill="#1e3461"/>

  <!-- 左側のアクセント -->
  <rect x="0" y="0" width="8" height="550" fill="#4a90d9"/>

  <!-- ロゴマーク（小） -->
  <polygon points="80,80 110,63 140,80 140,114 110,131 80,114" fill="none" stroke="#1e3461" stroke-width="2"/>
  <polygon points="80,80 110,63 140,80 140,114 110,131 80,114" fill="#1e3461" opacity="0.1"/>
  <polygon points="97,88 110,80 123,88 123,106 110,114 97,106" fill="#1e3461"/>

  <!-- 社名 -->
  <text x="160" y="90" font-family="sans-serif" font-size="16" fill="#1e3461" font-weight="bold" letter-spacing="3">NEXBRIDGE</text>
  <text x="160" y="112" font-family="sans-serif" font-size="10" fill="#6b7280" letter-spacing="5">TECHNOLOGIES</text>

  <!-- 区切り線 -->
  <line x1="60" y1="160" x2="850" y2="160" stroke="#e5e7eb" stroke-width="1"/>

  <!-- 部署・役職 -->
  <text x="60" y="210" font-family="sans-serif" font-size="14" fill="#6b7280">デジタルトランスフォーメーション推進部</text>
  <text x="60" y="235" font-family="sans-serif" font-size="13" fill="#6b7280">シニアコンサルタント</text>

  <!-- 氏名 -->
  <text x="60" y="300" font-family="sans-serif" font-size="36" fill="#1e3461" font-weight="bold">田中 裕太</text>
  <text x="60" y="330" font-family="sans-serif" font-size="14" fill="#6b7280" letter-spacing="1">TANAKA Yuta</text>

  <!-- 連絡先 -->
  <text x="60" y="400" font-family="sans-serif" font-size="12" fill="#6b7280">TEL  03-6812-0001</text>
  <text x="60" y="425" font-family="sans-serif" font-size="12" fill="#6b7280">FAX  03-6812-0099</text>
  <text x="60" y="450" font-family="sans-serif" font-size="12" fill="#6b7280">MAIL y.tanaka@nexbridge-tech.co.jp</text>

  <!-- 住所 -->
  <text x="60" y="495" font-family="sans-serif" font-size="11" fill="#6b7280">〒100-0005 東京都千代田区丸の内2-7-1</text>
  <text x="60" y="515" font-family="sans-serif" font-size="11" fill="#6b7280">丸の内JPタワー 28F</text>

  <!-- URL -->
  <text x="850" y="515" text-anchor="end" font-family="sans-serif" font-size="11" fill="#4a90d9">https://nexbridge-tech.co.jp</text>
</svg>
